<svg t="1670221189479" class="icon" viewBox="0 0 1024 1024" version="1.1" xmlns="http://www.w3.org/2000/svg" p-id="1642" width="64" height="64">
  <path fill="currentColor" d="M810.666667 648.533333V298.666667c0-46.933333-38.4-85.333333-85.333334-85.333334h-85.333333V85.333333l-170.666667 170.666667 170.666667 170.666667V298.666667h85.333333v349.866666c-51.2 17.066667-85.333333 64-85.333333 119.466667 0 72.533333 55.466667 128 128 128s128-55.466667 128-128c0-55.466667-34.133333-102.4-85.333333-119.466667zM768 810.666667c-25.6 0-42.666667-17.066667-42.666667-42.666667s17.066667-42.666667 42.666667-42.666667 42.666667 17.066667 42.666667 42.666667-17.066667 42.666667-42.666667 42.666667zM384 256c0-72.533333-55.466667-128-128-128S128 183.466667 128 256c0 55.466667 34.133333 102.4 85.333333 119.466667v268.8c-51.2 17.066667-85.333333 64-85.333333 119.466666 0 72.533333 55.466667 128 128 128s128-55.466667 128-128c0-55.466667-34.133333-102.4-85.333333-119.466666V375.466667C349.866667 358.4 384 311.466667 384 256zM256 810.666667c-25.6 0-42.666667-17.066667-42.666667-42.666667s17.066667-42.666667 42.666667-42.666667 42.666667 17.066667 42.666667 42.666667-17.066667 42.666667-42.666667 42.666667zM256 298.666667c-25.6 0-42.666667-17.066667-42.666667-42.666667s17.066667-42.666667 42.666667-42.666667 42.666667 17.066667 42.666667 42.666667-17.066667 42.666667-42.666667 42.666667z" p-id="1643"></path>
</svg>