<svg t="1669876671726" class="icon" viewBox="0 0 1024 1024" version="1.1" xmlns="http://www.w3.org/2000/svg" p-id="5357" width="64" height="64">
  <path fill="currentColor" d="M523.636364 197.818182c-24.087273 0-34.909091 19.549091-34.909091 43.52v145.687273c0 23.970909 10.821818 43.52 34.909091 43.52s34.909091-19.549091 34.909091-43.52v-145.687273c0-23.970909-10.821818-43.52-34.909091-43.52zM552.168727 0h-80.337454A309.178182 309.178182 0 0 0 162.909091 308.829091v406.341818A309.178182 309.178182 0 0 0 471.831273 1024h80.337454A309.178182 309.178182 0 0 0 861.090909 715.170909V308.829091A309.178182 309.178182 0 0 0 552.168727 0zM791.272727 715.170909A239.080727 239.080727 0 0 1 552.168727 954.181818h-80.337454A239.080727 239.080727 0 0 1 232.727273 715.170909V308.829091A239.080727 239.080727 0 0 1 471.831273 69.818182h80.337454A239.080727 239.080727 0 0 1 791.272727 308.829091v406.341818z" p-id="5358"></path>
</svg>