<svg t="1679316911025" class="icon" viewBox="0 0 1030 1024" version="1.1"
  xmlns="http://www.w3.org/2000/svg" p-id="6862" width="64" height="64">
  <path
    fill="currentColor"
    d="M376.053929 561.350639H86.337861A86.440889 86.440889 0 0 0 0 647.6885v289.922125a86.492404 86.492404 0 0 0 86.337861 86.389375H376.053929a86.492404 86.492404 0 0 0 86.389375-86.389375v-289.922125A86.440889 86.440889 0 0 0 376.053929 561.350639z m8.396821 376.053929a8.551363 8.551363 0 0 1-8.396821 8.602877H86.337861a8.499849 8.499849 0 0 1-8.345306-8.39682v-289.922125a8.448335 8.448335 0 0 1 8.345306-8.345307H376.053929a8.499849 8.499849 0 0 1 8.396821 8.345307z"
    p-id="6863"></path>
  <path
    fill="currentColor"
    d="M1018.694034 287.91307l-82.422779-142.488379a38.97052 38.97052 0 1 0-67.483651 38.996277l82.422779 142.488379a8.602878 8.602878 0 0 1-3.090854 11.487675l-251.08039 144.909548a8.087735 8.087735 0 0 1-6.336251 0.824228 8.242278 8.242278 0 0 1-5.151424-3.863568L540.899487 229.18684a8.499849 8.499849 0 0 1 3.090854-11.436161l251.028876-144.961062a38.996277 38.996277 0 0 0-38.944763-67.535165L504.839521 150.215515a85.668176 85.668176 0 0 0-40.284133 52.699064 84.637891 84.637891 0 0 0-1.906027 9.272563V127.90985A86.492404 86.492404 0 0 0 376.053929 41.520475H86.337861A86.440889 86.440889 0 0 0 0 127.90985v289.922125a86.440889 86.440889 0 0 0 86.337861 86.337861H376.053929a86.440889 86.440889 0 0 0 86.595432-86.337861V238.253345a85.822719 85.822719 0 0 0 10.302847 29.929772L618.170842 519.263507a85.513633 85.513633 0 0 0 61.817084 42.087132h-68.616963a86.492404 86.492404 0 0 0-86.389375 86.337861v289.922125a86.543918 86.543918 0 0 0 86.389375 86.389375H901.499145a86.492404 86.492404 0 0 0 86.337861-86.389375v-289.922125A86.440889 86.440889 0 0 0 901.499145 561.350639h-195.187444a85.925747 85.925747 0 0 0 29.723715-10.302847l251.08039-145.16712a86.440889 86.440889 0 0 0 31.578228-117.967602zM384.656807 417.831975A8.499849 8.499849 0 0 1 376.053929 426.177281H86.337861a8.448335 8.448335 0 0 1-8.345306-8.345306V127.90985a8.499849 8.499849 0 0 1 8.345306-8.396821H376.053929a8.551363 8.551363 0 0 1 8.396821 8.396821z m524.981587 229.856525v289.922125a8.499849 8.499849 0 0 1-8.345306 8.39682h-289.922125a8.551363 8.551363 0 0 1-8.396821-8.39682v-289.922125a8.499849 8.499849 0 0 1 8.396821-8.345307H901.499145a8.448335 8.448335 0 0 1 8.139249 8.345307z"
    p-id="6864"></path>
</svg>