<svg t="1678440512111" class="icon" viewBox="0 0 1024 1024" version="1.1"
  xmlns="http://www.w3.org/2000/svg" p-id="11168" width="64" height="64">
  <path
    d="M116.363636 82.013091c0 19.595636 15.872 35.467636 35.467637 35.467636h720.337454a35.467636 35.467636 0 0 0 0-70.935272H151.831273C132.235636 46.545455 116.363636 62.417455 116.363636 82.013091z m0 859.973818C116.363636 961.582545 132.235636 977.454545 151.831273 977.454545h720.337454a35.467636 35.467636 0 1 0 0-70.935272H151.831273c-19.595636 0-35.467636 15.872-35.467637 35.467636z m511.976728-590.359273a8.587636 8.587636 0 0 0 6.702545-13.847272l-118.690909-150.877091a8.378182 8.378182 0 0 0-13.312 0l-118.690909 150.877091a8.564364 8.564364 0 0 0 6.725818 13.847272h78.545455v316.881455H395.636364a8.587636 8.587636 0 0 0-6.702546 13.847273l118.690909 150.760727a8.378182 8.378182 0 0 0 13.312 0l118.690909-150.760727a8.564364 8.564364 0 0 0-6.725818-13.847273h-78.545454V351.650909H628.363636z"
    fill="currentColor" p-id="11169"></path>
</svg>