<svg t="1698916917467" class="icon" viewBox="0 0 1024 1024" version="1.1"
  xmlns="http://www.w3.org/2000/svg" p-id="10617" width="64" height="64">
  <path
    d="M776.145455 81.454545l214.10909 296.727273 10.472728 13.963637v552.727272H23.272727V392.145455l10.472728-13.963637L247.854545 81.454545h528.29091zM335.127273 406.109091H51.2v510.836364h921.6V406.109091H684.218182c-5.818182 36.072727-22.109091 69.818182-48.872727 96.581818-33.745455 33.745455-79.127273 52.363636-125.672728 52.363636-47.709091 0-91.927273-18.618182-125.672727-52.363636-25.6-26.763636-43.054545-60.509091-48.872727-96.581818z m621.381818-27.927273L762.181818 109.381818h-500.363636L67.490909 378.181818h293.271273c0 39.563636 16.256 76.8 44.183273 104.727273 27.927273 27.927273 66.327273 44.218182 104.727272 44.218182s76.8-16.290909 104.727273-44.218182c27.927273-27.927273 44.322909-65.163636 44.322909-104.727273H956.509091z"
    fill="currentColor" p-id="10618"></path>
</svg>