<svg t="1669270375884" class="icon" viewBox="0 0 1024 1024" version="1.1" xmlns="http://www.w3.org/2000/svg" p-id="14105" width="200" height="200">
  <path d="M832 160h-96v-64h-64v192h64v-64H832c17.92 0 32 14.08 32 32v96h-704V256c0-17.92 14.08-32 32-32h32v-64H192c-53.12 0-96 42.88-96 96v576c0 53.12 42.88 96 96 96h640c53.12 0 96-42.88 96-96V256c0-53.12-42.88-96-96-96z m0 704H192c-17.92 0-32-14.08-32-32V416h704V832c0 17.92-14.08 32-32 32z" fill="currentColor" p-id="14106"></path>
  <path d="M352 224h256v-64h-256v-64h-64v192h64zM575.36 524.8L512 588.16l-63.36-63.36-45.44 45.44 63.36 63.36-63.36 63.36 45.44 45.44 63.36-63.36 63.36 63.36 45.44-45.44-63.36-63.36 63.36-63.36z" fill="currentColor" p-id="14107"></path>
</svg>