<svg t="1671428220384" class="icon" viewBox="0 0 1024 1024" version="1.1"
  xmlns="http://www.w3.org/2000/svg" p-id="7813" width="64" height="64">
  <path
    d="M281.6 183.115294V105.291294c0-26.864941 21.805176-48.670118 48.670118-48.670118h636.928c26.864941 0 48.670118 21.805176 48.670117 48.670118 0 183.416471 0.843294 680.357647 0.843294 863.774118a48.670118 48.670118 0 0 1-48.670117 48.670117H314.488471a48.730353 48.730353 0 0 1-48.730353-48.670117v-118.723765h55.175529v63.548235a48.609882 48.609882 0 0 0 48.670118 48.730353h543.262117a48.911059 48.911059 0 0 0 48.670118-48.730353c0-169.803294-0.843294-583.619765-0.843294-753.423058a48.911059 48.911059 0 0 0-14.21553-34.454589 48.911059 48.911059 0 0 0-34.454588-14.215529H385.445647a48.911059 48.911059 0 0 0-34.454588 14.215529 48.911059 48.911059 0 0 0-14.21553 34.454589v22.64847h-55.175529z"
    fill="currentColor" p-id="7814"></path>
  <path
    d="M633.916235 183.115294l2.228706 0.120471 2.168471 0.12047 2.16847 0.180706 2.168471 0.240941 2.168471 0.301177 2.108235 0.361412 2.108235 0.421647 2.108235 0.421647 2.048 0.542117 2.048 0.542118 2.048 0.602353 1.987765 0.662588 1.987765 0.722824 1.987765 0.722823 1.927529 0.783059 1.927529 0.843294 1.867294 0.90353 1.867295 0.903529 1.807058 0.963765 1.867295 1.024 1.746823 1.084235 1.746824 1.084235 1.746823 1.144471 1.686588 1.14447 1.686589 1.204706 1.626353 1.264942 1.626352 1.325176 1.566118 1.325176 1.566118 1.385412 1.505882 1.385412 1.445647 1.445647 1.445647 1.445647 1.445647 1.505882 1.325177 1.566118 1.325176 1.566118 1.325177 1.626353 1.264941 1.626353 1.204706 1.686588 1.204706 1.686588 1.14447 1.746824 1.084236 1.746823 1.024 1.807059 1.024 1.807059 0.963764 1.807059 0.963765 1.867294 0.843294 1.927529 0.843294 1.92753 0.783059 1.927529 0.783059 1.927529 0.662588 1.987765 0.662588 2.048 0.602353 1.987765 0.542118 2.048 0.542118 2.108235 0.421647 2.048 0.421647 2.108235 0.361411 2.168471 0.301177 2.108235 0.240941 2.168471 0.180706 2.16847 0.120471 2.228706 0.12047 2.168471V754.567529l-0.12047 2.168471-0.120471 2.228706-0.180706 2.16847-0.240941 2.168471-0.301177 2.108235-0.361411 2.108236-0.421647 2.108235-0.421647 2.108235-0.542118 2.048-0.542118 2.048-0.602353 2.048-0.662588 2.048-0.662588 1.92753-0.783059 1.987764-0.783059 1.92753-0.843294 1.927529-0.843294 1.867294-0.963765 1.867294-0.963764 1.867295-1.024 1.807058-1.024 1.807059-1.084236 1.746824-1.14447 1.746823-1.204706 1.686588-1.204706 1.686589-1.264941 1.626353-1.325177 1.626353-1.325176 1.566117-1.325177 1.505883-1.445647 1.505882-1.445647 1.505882-1.445647 1.445647-1.505882 1.385412-1.566118 1.385412-1.566118 1.325176-1.626352 1.264942-1.626353 1.264941-1.686589 1.264941-1.686588 1.14447-1.746823 1.144471-1.746824 1.084235-1.746823 1.084236-1.867295 1.024-1.807058 0.963764-1.867295 0.90353-1.867294 0.903529-1.927529 0.843294-1.927529 0.783059-1.987765 0.722824-1.987765 0.722823-1.987765 0.662588-2.048 0.602353-2.048 0.542118-2.048 0.481882-2.108235 0.481883-2.108235 0.421647-2.108235 0.301176-2.168471 0.301177-2.168471 0.240941-2.16847 0.240941-2.168471 0.120471-2.228706 0.060235-2.228706 0.060235H141.854118l-2.228706-0.060235-2.168471-0.060235-2.228706-0.120471-2.16847-0.240941-2.168471-0.240941-2.108235-0.301177-2.108235-0.301176-2.108236-0.421647-2.108235-0.481883-2.048-0.481882-2.048-0.542118-2.048-0.602353-1.987765-0.662588-1.987764-0.722823-1.987765-0.722824-1.92753-0.783059-1.927529-0.843294-1.867294-0.903529-1.867294-0.90353-1.867294-0.963764-1.807059-1.024-1.807059-1.084236-1.746824-1.084235-1.746823-1.144471-1.686588-1.14447-1.686589-1.264941-1.626352-1.264941-1.566118-1.264942-1.626353-1.325176-1.505882-1.385412-1.505883-1.385412-1.505882-1.445647-1.445647-1.505882-1.385412-1.505882-1.385412-1.505883-1.325176-1.566117-1.264941-1.626353-1.264942-1.626353-1.264941-1.686589-1.14447-1.686588-1.144471-1.746823-1.084235-1.746824-1.084235-1.807059-1.024-1.807058-0.963765-1.867295-0.90353-1.867294-0.903529-1.867294-0.843294-1.927529-0.783059-1.92753-0.722823-1.987764-0.722824-1.92753-0.662588-2.048-0.602353-2.048-0.542118-2.048-0.481882-2.048-0.481883-2.108235-0.421647-2.108235-0.301176-2.108236-0.301177-2.108235-0.240941-2.168471-0.240941-2.16847-0.12047-2.228706-0.060236-2.168471-0.060235-2.228705V269.071059l0.060235-2.228706 0.060236-2.168471 0.12047-2.228706 0.240941-2.16847 0.240941-2.168471 0.301177-2.108235 0.301176-2.168471 0.421647-2.108235 0.481883-2.048 0.481882-2.108235 0.542118-2.048 0.602353-1.987765 0.662588-2.048 0.722824-1.987765 0.722823-1.927529 0.783059-1.927529 0.843294-1.92753 0.903529-1.927529 0.90353-1.867294 0.963765-1.807059 1.024-1.807059 1.084235-1.807059 1.084235-1.746823 1.144471-1.746824 1.14447-1.686588 1.264941-1.686588 1.264942-1.626353 1.264941-1.626353 1.325176-1.566118 1.385412-1.566118 1.385412-1.505882 1.445647-1.445647 1.505882-1.445647 1.505883-1.385412 1.505882-1.385412 1.626353-1.325176 1.566118-1.325176 1.626352-1.264942 1.686589-1.204706 1.686588-1.14447 1.746823-1.144471 1.746824-1.084235 1.807059-1.084235 1.807059-1.024 1.867294-0.963765 1.867294-0.903529 1.867294-0.90353 1.927529-0.843294 1.92753-0.783059 1.987765-0.722823 1.987764-0.722824 1.987765-0.662588 2.048-0.602353 2.048-0.542118 2.048-0.542117 2.108235-0.421647 2.108236-0.421647 2.108235-0.361412 2.108235-0.301177 2.168471-0.240941 2.16847-0.180706 2.228706-0.12047 2.168471-0.120471H633.916235z m-491.64047 60.235294h-1.084236l-0.722823 0.060236h-0.662588l-0.602353 0.060235-0.662589 0.12047-0.662588 0.060236-0.662588 0.12047-0.602353 0.120471-0.602353 0.12047-0.602353 0.120471-0.602353 0.180706-0.602353 0.180706-0.602353 0.180706-0.602353 0.240941-0.542117 0.180706-0.602353 0.240941-0.542118 0.240941-0.542117 0.301177-0.542118 0.240941-0.602353 0.301176-0.542118 0.301177-0.481882 0.301176-0.542118 0.361412-0.542117 0.361412-0.481883 0.301176-0.481882 0.361412-0.542118 0.421647-0.481882 0.361412-0.481882 0.421647-0.481883 0.421647-0.421647 0.421647-0.481882 0.421647-0.421647 0.481882-0.421647 0.421647-0.421647 0.481883-0.361412 0.481882-0.421647 0.481882-0.421647 0.481883-0.361412 0.542117-0.301176 0.481883-0.361412 0.481882-0.361412 0.602353-0.301176 0.481882-0.301177 0.542118-0.301176 0.542118-0.240942 0.542117-0.240941 0.542118-0.301176 0.602353-0.240941 0.602353-0.180706 0.542118-0.180706 0.602353-0.240941 0.602352-0.180706 0.542118-0.120471 0.662588-0.180706 0.602353-0.12047 0.602353-0.120471 0.602353-0.12047 0.662588-0.060236 0.602353-0.060235 0.662589-0.060235 0.662588-0.060236 0.662588-0.060235 0.662588V753.001412l0.060235 0.722823 0.060236 0.662589 0.060235 0.662588 0.060235 0.662588 0.060236 0.602353 0.12047 0.602353 0.120471 0.662588 0.12047 0.602353 0.180706 0.602353 0.120471 0.602353 0.180706 0.602353 0.240941 0.602353 0.180706 0.602353 0.180706 0.542117 0.240941 0.602353 0.301176 0.542118 0.240941 0.602353 0.240942 0.542118 0.301176 0.481882 0.301177 0.602353 0.301176 0.481882 0.361412 0.542118 0.361412 0.542118 0.301176 0.481882 0.361412 0.542118 0.421647 0.481882 0.421647 0.481882 0.361412 0.481883 0.421647 0.481882 0.421647 0.421647 0.421647 0.481882 0.481882 0.421647 0.421647 0.421647 0.481883 0.421648 0.481882 0.421647 0.481882 0.361411 0.542118 0.421647 0.481882 0.361412 0.481883 0.301177 0.542117 0.361411 0.542118 0.361412 0.481882 0.301177 0.542118 0.301176 0.602353 0.301177 0.542118 0.240941 0.542117 0.301176 0.542118 0.240941 0.602353 0.240942 0.542117 0.180705 0.602353 0.240942 0.602353 0.180706 0.602353 0.180705 0.602353 0.120471 0.602353 0.180706 0.602353 0.12047 0.602353 0.120471 0.662588 0.120471 0.662588 0.060235 0.662589 0.120471h0.602353l0.662588 0.060235 0.722823 0.060235H632.410353l0.662588-0.060235 0.662588-0.060235h0.662589l0.662588-0.120471 0.662588-0.060235 0.602353-0.120471 0.602353-0.120471 0.662588-0.12047 0.602353-0.180706 0.602353-0.120471 0.602353-0.180705 0.542118-0.180706 0.602353-0.240942 0.602353-0.180705 0.542117-0.240942 0.542118-0.240941 0.602353-0.301176 0.542117-0.240941 0.542118-0.301177 0.542118-0.301176 0.542117-0.301177 0.542118-0.361412 0.542118-0.361411 0.481882-0.301177 0.481882-0.361412 0.542118-0.421647 0.481882-0.361411 0.421647-0.421647 0.481883-0.421648 0.481882-0.421647 0.421647-0.421647 0.481883-0.481882 0.421647-0.421647 0.361411-0.481882 0.421647-0.481883 0.421648-0.481882 0.361411-0.481882 0.361412-0.542118 0.361412-0.481882 0.361412-0.542118 0.301176-0.542118 0.301177-0.481882 0.301176-0.602353 0.301176-0.481882 0.301177-0.542118 0.240941-0.602353 0.240941-0.542118 0.240941-0.602353 0.240942-0.542117 0.180706-0.602353 0.180705-0.602353 0.180706-0.602353 0.180706-0.602353 0.120471-0.602353 0.180706-0.602353 0.12047-0.662588 0.060236-0.602353 0.12047-0.602353 0.060235-0.662588 0.060236-0.662588 0.060235-0.662589V267.685647l-0.060235-0.662588-0.060236-0.662588-0.060235-0.662589-0.12047-0.602353-0.060236-0.662588-0.12047-0.602353-0.180706-0.602353-0.120471-0.602353-0.180706-0.662588-0.180706-0.542118-0.180705-0.602352-0.180706-0.602353-0.240942-0.542118-0.240941-0.602353-0.240941-0.602353-0.240941-0.542118-0.301177-0.542117-0.301176-0.542118-0.301176-0.542118-0.301177-0.481882-0.301176-0.602353-0.361412-0.481882-0.361412-0.481883-0.361412-0.542117-0.361411-0.481883-0.421648-0.481882-0.421647-0.481882-0.361411-0.481883-0.421647-0.421647-0.481883-0.481882-0.421647-0.421647-0.481882-0.421647-0.481883-0.421647-0.421647-0.421647-0.481882-0.361412-0.542118-0.421647-0.481882-0.361412-0.481882-0.301176-0.542118-0.361412-0.542118-0.361412-0.542117-0.301176-0.542118-0.301177-0.542118-0.301176-0.542117-0.240941-0.602353-0.301177-0.542118-0.240941-0.542117-0.240941-0.602353-0.180706-0.602353-0.240941-0.542118-0.180706-0.602353-0.180706-0.602353-0.180706-0.602353-0.120471-0.662588-0.12047-0.602353-0.120471-0.602353-0.12047-0.662588-0.060236-0.662588-0.12047-0.662589-0.060235h-0.662588l-0.662588-0.060236H142.275765z"
    fill="currentColor" p-id="7815"></path>
  <path
    d="M480.737882 717.462588L390.625882 582.896941l-0.421647-0.843294a46.742588 46.742588 0 0 1-5.903059 8.131765l-91.075764 127.277176h-96.376471l149.684706-194.439529-133.842823-191.247059h93.063529l80.534588 129.987765c1.385412 1.626353 2.650353 3.312941 3.855059 4.999529l1.867294-3.855059c7.770353-11.083294 60.114824-96.617412 77.342118-124.687059l3.855059-6.445176h95.171764L434.597647 525.613176l142.034824 191.849412H480.737882z"
    fill="currentColor" p-id="7816"></path>
  <path
    d="M763.964235 334.185412c0-18.853647 15.299765-34.153412 34.153412-34.153412h89.750588a34.153412 34.153412 0 0 1 0 68.306824h-89.750588a34.153412 34.153412 0 0 1-34.153412-34.153412z m0 174.802823c0-18.853647 15.299765-34.153412 34.153412-34.153411h89.750588a34.153412 34.153412 0 0 1 0 68.306823h-89.750588a34.153412 34.153412 0 0 1-34.153412-34.153412zM775.830588 693.488941c0-18.853647 15.299765-34.153412 34.153412-34.153412h89.750588a34.153412 34.153412 0 0 1 0 68.306824h-89.750588a34.153412 34.153412 0 0 1-34.153412-34.153412z"
    fill="currentColor" p-id="7817"></path>
</svg>