<svg t="1669090001868" class="icon" viewBox="0 0 1024 1024" version="1.1" xmlns="http://www.w3.org/2000/svg" p-id="7911" width="200" height="200">
  <path d="M918.954667 880.896c-0.618667-1.322667-154.688-334.378667-177.194667-382.421333-135.402667-288.917333-174.976-369.642667-196.821333-391.957334a31.829333 31.829333 0 0 0-13.013334-12.138666 32 32 0 0 0-42.944 14.293333L109.909333 865.706667a32 32 0 0 0 57.216 28.672l99.349334-198.421334h496.725333a49853.44 49853.44 0 0 1 97.536 211.605334 32.021333 32.021333 0 0 0 58.218667-26.666667zM521.002667 187.626667c39.850667 76.650667 126.698667 260.117333 212.458666 444.330666H298.517333L521.002667 187.626667z" fill="currentColor" p-id="7912"></path>
</svg>