<svg t="1679234409554" class="icon" viewBox="0 0 1024 1024" version="1.1"
  xmlns="http://www.w3.org/2000/svg" p-id="2793" width="64" height="64">
  <path
    d="M223.962372 607.897867c-52.980346 0-95.983874-43.003528-95.983874-95.983874s43.003528-95.983874 95.983874-95.983874 95.983874 43.003528 95.983874 95.983874S276.942718 607.897867 223.962372 607.897867z"
    fill="currentColor" p-id="2794"></path>
  <path
    d="M511.913993 607.897867c-52.980346 0-95.983874-43.003528-95.983874-95.983874s43.003528-95.983874 95.983874-95.983874 95.983874 43.003528 95.983874 95.983874S564.894339 607.897867 511.913993 607.897867z"
    fill="currentColor" p-id="2795"></path>
  <path
    d="M800.037628 607.897867c-52.980346 0-95.983874-43.003528-95.983874-95.983874s43.003528-95.983874 95.983874-95.983874 95.983874 43.003528 95.983874 95.983874S852.84596 607.897867 800.037628 607.897867z"
    fill="currentColor" p-id="2796"></path>
</svg>