<svg t="1669019135871" class="icon" viewBox="0 0 1024 1024" version="1.1" xmlns="http://www.w3.org/2000/svg" p-id="6207" width="200" height="200">
  <path d="M432.541809 908.452357c-13.634532 0-27.871791-3.208065-42.314735-9.532097l-196.059328-85.830831c-51.599192-22.587438-92.018763-79.652108-92.018763-129.911792L102.148983 424.346661c0-42.561351 28.876678-72.28635 70.224388-72.28635 13.636578 0 27.873838 3.207042 42.317805 9.533121l196.059328 85.837994c51.597145 22.589484 92.015693 79.649038 92.015693 129.902582l0 258.830977C502.766197 878.726336 473.889519 908.452357 432.541809 908.452357zM172.373371 403.225621c-17.083074 0-19.059078 12.054547-19.059078 21.12104l0 258.830977c0 29.924543 28.678156 68.729338 61.372789 83.041298l196.063421 85.831854c7.823176 3.426029 15.357779 5.236258 21.792329 5.236258 17.083074 0 19.059078-12.054547 19.059078-21.123087L451.60191 577.334008c0-29.919427-28.677133-68.720128-61.370743-83.033112l-196.062398-85.839017C186.34457 405.03585 178.808944 403.225621 172.373371 403.225621z" p-id="6208" fill="currentColor"></path>
  <path d="M620.67563 908.452357 620.67563 908.452357c-38.881542-0.001023-66.035996-29.727045-66.035996-72.288396L554.639634 577.334008c0-49.874921 36.876885-106.759489 83.953064-129.503493l177.675632-85.839017c13.631462-6.589069 27.149337-9.93221 40.172955-9.93221 38.883589 0 66.040089 29.724998 66.040089 72.28635l0 258.830977c0 49.875944-36.876885 106.764606-83.95511 129.511679l-177.676655 85.832877C647.216099 905.109216 633.697201 908.452357 620.67563 908.452357zM856.441285 403.225621c-5.174859 0-11.366885 1.672082-17.910928 4.835122L660.849608 493.901807c-29.322839 14.166651-55.044664 53.152571-55.044664 83.432201l0 258.830977c0 21.122063 11.192923 21.122063 14.870686 21.123087 5.174859 0 11.367909-1.672082 17.913998-4.835122l177.678702-85.833901c29.323862-14.168698 55.047734-53.159734 55.047734-83.441411L871.316064 424.346661C871.316064 403.225621 860.120071 403.225621 856.441285 403.225621z" p-id="6209" fill="currentColor"></path>
  <path d="M520.643356 416.470273c-0.004093 0-0.005117 0-0.00921 0-33.103956-0.001023-67.656913-5.960759-94.799086-16.35141l-208.099549-79.613222c-15.587-5.957689-28.178783-13.105482-37.417191-21.24179-15.425318-13.582343-18.788925-27.503401-18.894326-36.788881-0.130983-11.576663 4.572132-33.008788 37.553291-46.482661l224.342488-91.591021c22.662139-9.252735 49.824779-11.193947 68.62189-11.193947 33.093722 0 67.638493 5.954619 94.776573 16.338107l208.109782 79.622432c15.585977 5.957689 28.179806 13.106506 37.420261 21.242813 15.426341 13.583366 18.789948 27.505447 18.895349 36.791951 0.130983 11.576663-4.573155 33.008788-37.555337 46.479591l-224.345558 91.589998C566.596967 414.525991 539.438421 416.470273 520.643356 416.470273zM217.706859 263.614933c3.816932 2.592035 9.69378 5.810333 18.303878 9.101285l208.111828 79.617315c21.533432 8.242731 49.420573 12.970406 76.513628 12.971429 0.001023 0 0.005117 0 0.00614 0 19.794835 0 37.744649-2.696412 49.252751-7.399527l224.349651-91.592045c0.209778-0.084934 0.413416-0.170892 0.61296-0.254803-3.816932-2.592035-9.695826-5.810333-18.305925-9.101285L568.433802 177.331801c-21.527292-8.236592-49.40727-12.960173-76.493162-12.960173-19.803022 0-37.765115 2.696412-49.282427 7.398504l-224.337371 91.588975C218.111065 263.446088 217.906403 263.531022 217.706859 263.614933z" p-id="6210" fill="currentColor"></path>
  <path d="M679.315168 563.803853c0 61.606103 0 123.212206 0 184.818309 22.472827-23.835871 44.945655-47.670719 67.418482-71.506591 18.933211-20.080338 42.513256-4.065596 67.984371 2.351558 0-61.211107 0-122.422214 0-183.633321C769.583055 518.490831 724.448088 541.147854 679.315168 563.803853z" p-id="6211" fill="currentColor"></path>
</svg>