<svg t="1670574790983" class="icon" viewBox="0 0 1024 1024" version="1.1" xmlns="http://www.w3.org/2000/svg" p-id="24760" width="64" height="64">
  <path fill='currentColor' d="M844.288 548.827429H179.712l68.717714 68.699428a36.571429 36.571429 0 0 1-51.730285 51.730286l-129.28-129.298286a37.229714 37.229714 0 0 1-0.914286-0.950857A36.48 36.48 0 0 1 54.857143 512.256c0-9.014857 3.254857-17.28 8.667428-23.643429 1.152-1.609143 2.450286-3.126857 3.876572-4.571428l129.298286-129.28a36.571429 36.571429 0 1 1 51.730285 51.712L179.2 475.684571h665.563429l-69.211429-69.211428a36.571429 36.571429 0 1 1 51.730286-51.730286l129.28 129.298286c1.462857 1.444571 2.742857 2.962286 3.894857 4.571428 5.412571 6.363429 8.667429 14.628571 8.667428 23.643429 0 10.569143-4.48 20.077714-11.648 26.752a37.229714 37.229714 0 0 1-0.914285 0.950857l-129.28 129.28a36.571429 36.571429 0 1 1-51.730286-51.712l68.717714-68.699428z" p-id="24761"></path>
</svg>