<svg t="1696505506763" class="icon" viewBox="0 0 1024 1024" version="1.1"
  xmlns="http://www.w3.org/2000/svg" p-id="5217" width="64" height="64">
  <path
    d="M872.192 840.533333H150.016a38.741333 38.741333 0 1 0 0 77.653334h722.176a38.741333 38.741333 0 1 0 0-77.653334zM511.402667 84.906667a38.741333 38.741333 0 0 0-38.826667 38.826666v556.117334a38.741333 38.741333 0 1 0 77.653333 0V123.733333a38.741333 38.741333 0 0 0-38.826666-38.826666z"
    fill="currentColor" p-id="5218"></path>
  <path
    d="M700.16 468.394667a37.888 37.888 0 0 0-27.477333 11.349333l-161.28 161.28-161.28-161.28a39.253333 39.253333 0 0 0-54.954667 0 39.253333 39.253333 0 0 0 0 54.954667l188.757333 188.757333a39.253333 39.253333 0 0 0 54.954667 0l188.757333-188.757333a39.253333 39.253333 0 0 0 0-54.954667 40.533333 40.533333 0 0 0-27.477333-11.349333z"
    fill="currentColor" p-id="5219"></path>
</svg>