<svg t="1669092652781" class="icon" viewBox="0 0 1024 1024" version="1.1" xmlns="http://www.w3.org/2000/svg" p-id="22947" width="200" height="200">
  <path d="M512 511.4m-212 0a212 212 0 1 0 424 0 212 212 0 1 0-424 0Z" fill="#ffd93d" p-id="22948"></path>
  <path d="M512 511.4m-198.3 0a198.3 198.3 0 1 0 396.6 0 198.3 198.3 0 1 0-396.6 0Z" fill="#ffd93d" p-id="22949"></path>
  <path d="M511.7 130.2c12.9-0.2 24.2 11.3 24.5 24.3l0.4 79.6c0.2 12.9-11.3 24.2-24.3 24.5-12.9 0.2-24.2-11.3-24.5-24.3l-0.4-79.6c0.9-14.9 11.4-24.3 24.3-24.5zM901.5 510c-0.2 12.9-9.6 23.4-24.5 24.3l-79.6-0.4c-12.9-0.2-24.5-11.5-24.3-24.5 0.2-12.9 11.5-24.5 24.5-24.3l79.6 0.4c12.9 0.3 24.5 11.6 24.3 24.5zM250.9 510c-0.2 12.9-9.6 23.4-24.5 24.3l-79.6-0.4c-12.9-0.2-24.5-11.5-24.3-24.5 0.2-12.9 11.5-24.5 24.5-24.3l79.6 0.4c12.9 0.3 24.5 11.6 24.3 24.5zM512.3 893.8c-12.9 0.2-24.2-11.3-24.5-24.3l-0.4-79.6c-0.2-12.9 11.3-24.2 24.3-24.5 12.9-0.2 24.2 11.3 24.5 24.3l0.4 79.6c-0.9 14.9-11.4 24.3-24.3 24.5z" fill="#ffd93d" p-id="22950"></path>
  <path d="M781.2 242.3c9.3 9 9.1 25.1 0.1 34.5l-56 56.5c-9 9.3-25.1 9.1-34.5 0.1-9.3-9-9.1-25.1-0.1-34.5l56-56.5c11.1-9.9 25.1-9.1 34.5-0.1zM788.2 786.5c-9.3 9-23.3 9.8-34.5-0.1l-56-56.5c-9-9.3-9.2-25.5 0.1-34.5 9.3-9 25.5-9.2 34.5 0.1l56 56.5c9 9.3 9.2 25.5-0.1 34.5zM328.1 326.4c-9.3 9-23.3 9.8-34.5-0.1l-56-56.5c-9-9.3-9.2-25.5 0.1-34.5 9.3-9 25.5-9.2 34.5 0.1l56 56.5c9 9.4 9.3 25.5-0.1 34.5zM241.6 782.6c-9.3-9-9.1-25.1-0.1-34.5l56-56.5c9-9.3 25.1-9.1 34.5-0.1 9.3 9 9.1 25.1 0.1 34.5l-56 56.5c-11.1 9.9-25.2 9.1-34.5 0.1z" fill="#ffd93d" p-id="22951"></path>
</svg>