<svg t="1679462172677" class="icon" viewBox="0 0 1024 1024" version="1.1"
  xmlns="http://www.w3.org/2000/svg" p-id="5971" width="64" height="64">
  <path
    d="M648.533333 1024h-3.413333l-546.133333-170.666667c-6.826667-3.413333-13.653333-10.24-10.24-20.48 0-10.24 6.826667-13.653333 17.066666-13.653333l559.786667 64.853333V143.36l-409.6 126.293333v430.08c0 6.826667-3.413333 13.653333-10.24 13.653334l-136.533333 68.266666c-6.826667 3.413333-10.24 3.413333-17.066667 0s-6.826667-10.24-6.826667-13.653333v-546.133333c0-6.826667 3.413333-13.653333 10.24-17.066667l529.066667-204.8h10.24l290.133333 68.266667c6.826667 3.413333 13.653333 10.24 13.653334 17.066666v819.2c0 6.826667-3.413333 13.653333-10.24 17.066667l-273.066667 102.4H648.533333zM283.306667 873.813333L648.533333 989.866667l256-95.573334V98.986667l-273.066666-64.853334-512 197.973334v505.173333l102.4-51.2V256c0-6.826667 3.413333-13.653333 13.653333-17.066667l443.733333-136.533333c6.826667 0 10.24 0 13.653334 3.413333 3.413333 3.413333 6.826667 6.826667 6.826666 13.653334v785.066666c0 3.413333-3.413333 10.24-6.826666 13.653334-3.413333 3.413333-6.826667 3.413333-13.653334 3.413333L283.306667 873.813333z"
    fill="currentColor" p-id="5972"></path>
</svg>