<svg t="1669354557217" class="icon" viewBox="0 0 1024 1024" version="1.1" xmlns="http://www.w3.org/2000/svg" p-id="15192" width="200" height="200">
  <path fill="currentColor" d="M256 170.666667a128 128 0 0 0-128 128v213.333333a42.666667 42.666667 0 1 0 85.333333 0V298.666667a42.666667 42.666667 0 0 1 42.666667-42.666667h213.333333a42.666667 42.666667 0 1 0 0-85.333333H256z m512 682.666666a128 128 0 0 0 128-128v-170.666666a42.666667 42.666667 0 1 0-85.333333 0v170.666666a42.666667 42.666667 0 0 1-42.666667 42.666667h-192a42.666667 42.666667 0 1 0 0 85.333333H768z" p-id="15193"></path>
</svg>